# xmcd
#
# Track frame offsets:
#	150
#	1943
#	11478
#	20336
#	36908
#	48251
#	62970
#	64068
#	80549
#	96001
#	115441
#	134106
#	144501
#	147145
#	156983
#	167258
#	178060
#	193199
#
# Disc length: 2762 seconds
#
# Revision: 2
# Processed by: cddbd v1.5.2PL0 Copyright (c) Steve Scherf et al.
# Submitted via: audiograbber 1.83.01
#
DISCID=f80ac812
DTITLE=Various Artist - King Of The Road- A Tribute To Roger Miller, cd 1
DYEAR=2018
DGENRE=Country
TTITLE0=Roger Miller - Greatest Songwriter (banter)
TTITLE1=Asleep At The Wheel w Huey Lewis - Chug-A-Lug
TTITLE2=Brad Paisley - Dang Me
TTITLE3=The Stellas w Lennon and Maiseyw - Leavin's Not The Only Way To Go
TTITLE4=Kacey Musgraves - Kansas City Star
TTITLE5=Rodney Crowell - World So Full Of Love
TTITLE6=Roger Miller - Old Friends (banter)
TTITLE7=Willie Nelson, Kris Kristofferson and Merle Haggard - Old Friends
TTITLE8=Mandy Barnett - Lock Stock And Teardrops
TTITLE9=Alison Krauss and The Cox Family - You Oughta Be Here With Me_I've Been A
TTITLE9=Long Time Leaving
TTITLE10=Ronnie Dunn w The Blind Boys Of Alabama - The Crossing
TTITLE11=The Earls Of Leicester w Shawn Camp - In The Summertime
TTITLE12=Roger Miller - Fiddle (banter)
TTITLE13=Lyle Lovett - England Swings
TTITLE14=Various Artist - You Can't Rollerskate In A Buffalo Herd
TTITLE15=Loretta Lynn - Half A Mind
TTITLE16=Shooter Jennings and Jessi Colter - Invitation To The Blues
TTITLE17=Dwight Yoakam - It Only Hurts Me When I Cry
EXTD=
EXTT0=
EXTT1=
EXTT2=
EXTT3=
EXTT4=
EXTT5=
EXTT6=
EXTT7=
EXTT8=
EXTT9=
EXTT10=
EXTT11=
EXTT12=
EXTT13=
EXTT14=
EXTT15=
EXTT16=
EXTT17=
PLAYORDER=
